<svg width="177" height="34" viewBox="0 0 177 34" fill="none" xmlns="http://www.w3.org/2000/svg">
<path d="M115.066 21.8932C114.425 21.7836 113.83 21.5505 113.345 21.1941C111.592 19.9057 110.81 18.1466 111.084 16.1042C111.414 13.6323 110.078 11.727 107.68 11.2564C106.046 10.9365 104.765 9.90391 104.074 8.35042C103.401 6.83348 103.442 5.05611 104.183 3.82702C105.309 1.95826 106.993 1.37799 108.49 1.05815C108.581 1.03988 108.673 1.04445 108.755 1.06729C108.778 1.06729 108.796 1.07186 108.819 1.07643C112.489 1.7161 113.99 3.68081 113.684 7.45031C113.537 9.22769 114.521 11.3477 117.02 11.8001C119.042 12.1656 120.447 13.4541 121.079 15.5376C121.669 17.484 121.051 19.3665 119.335 20.8332C118.223 21.7744 116.53 22.1445 115.066 21.8932ZM108.618 2.11818C106.847 2.51112 105.826 3.16907 105.103 4.37074C104.545 5.29827 104.527 6.71926 105.057 7.91179C105.373 8.62 106.16 9.86279 107.89 10.2055C110.842 10.7857 112.553 13.2119 112.151 16.2412C111.931 17.8724 112.567 19.2888 113.986 20.3306C115.194 21.217 117.413 21.0662 118.649 20.0107C119.619 19.1792 120.653 17.781 120.067 15.8392C119.555 14.144 118.47 13.1343 116.841 12.8418C113.825 12.2981 112.439 9.67089 112.631 7.35436C112.892 4.17427 111.734 2.65733 108.65 2.11818C108.631 2.11818 108.622 2.11818 108.618 2.11818Z" fill="#F15D22"/>
<path d="M103.949 21.894C103.344 21.7905 102.706 21.5701 102.05 21.2192C101.025 20.6704 100.237 19.6043 99.8857 18.2953C99.5076 16.8828 99.6898 15.3803 100.382 14.2827C101.225 12.9377 102.564 12.1415 104.596 11.7771C104.683 11.7636 104.765 11.7681 104.842 11.7906C104.865 11.7906 104.883 11.7951 104.906 11.7996L105.653 11.9301C107.339 12.2225 108.696 13.2526 109.389 14.7506C110.091 16.2755 109.977 17.9984 109.075 19.4784C108.077 21.1068 106.214 22.2853 103.949 21.894ZM104.692 12.8297C103.029 13.1401 101.945 13.7789 101.284 14.836C100.747 15.6952 100.606 16.8873 100.915 18.0254C101.193 19.0555 101.79 19.8832 102.56 20.2926C105.047 21.6286 107.166 20.5715 108.163 18.9296C108.883 17.751 108.974 16.3835 108.423 15.1779C107.881 13.9993 106.806 13.1896 105.471 12.9602L104.974 12.8747L104.724 12.8297C104.71 12.8342 104.701 12.8297 104.692 12.8297Z" fill="#F15D22"/>
<path d="M15.4374 15.8384C15.4374 16.5112 15.2919 17.2203 15.0055 17.9704C14.7191 18.7205 14.2828 19.4388 13.7009 20.1298C13.119 20.8163 12.3872 21.3754 11.5053 21.8073C10.6189 22.2392 9.59608 22.4528 8.43692 22.4528C7.28684 22.4528 6.14586 22.2028 5.00942 21.7027C3.87298 21.2027 2.91383 20.4571 2.12741 19.4661C1.78648 20.2525 1.56828 20.9845 1.47282 21.6573H0V14.2382H1.46828C1.73648 15.3019 2.10014 16.3066 2.5729 17.2431C3.04111 18.1796 3.70479 18.9888 4.56394 19.6661C5.42308 20.3435 6.47315 20.6799 7.71869 20.6799C8.80512 20.6799 9.67791 20.3798 10.3325 19.7843C10.9871 19.1888 11.3144 18.4387 11.3144 17.5295C11.3144 17.0203 11.2144 16.5703 11.0098 16.1884C10.8053 15.8065 10.5143 15.461 10.1325 15.1565C9.75064 14.8519 9.22333 14.5291 8.55965 14.1836C7.89597 13.8381 7.13683 13.4744 6.28223 13.088C4.97305 12.4698 3.89571 11.8469 3.05475 11.2196C2.21378 10.5922 1.57738 9.98307 1.14553 9.38754C0.713683 8.79202 0.413663 8.23285 0.250016 7.70097C0.0818235 7.16908 0 6.63265 0 6.08713C0 5.11883 0.259108 4.15961 0.781869 3.21859C1.30463 2.27756 2.06832 1.50473 3.07293 0.900113C4.08209 0.300038 5.2458 0 6.56861 0C7.58231 0 8.54601 0.227301 9.45971 0.677358C10.378 1.13196 11.1689 1.75022 11.8417 2.54123C12.0326 2.09572 12.2099 1.46382 12.369 0.654628H13.8691V6.6963H12.369C11.3053 3.40497 9.45062 1.75931 6.80954 1.75931C5.85038 1.75931 5.08215 2.01389 4.50029 2.5185C3.91844 3.02311 3.62751 3.67774 3.62751 4.47329C3.62751 5.10064 3.80934 5.64616 4.173 6.10986C4.53666 6.57355 5.01396 6.96906 5.60491 7.30092C6.19586 7.63278 7.15047 8.10557 8.47328 8.72383C10.0734 9.47847 11.3189 10.1376 12.219 10.6877C13.119 11.2423 13.8827 11.9379 14.5055 12.7834C15.1283 13.629 15.4374 14.6473 15.4374 15.8384Z" fill="white"/>
<path d="M30.67 18.6911C29.379 21.2051 27.3062 22.4643 24.4514 22.4643C23.1195 22.4643 21.8604 22.1916 20.6739 21.6506C19.4875 21.1051 18.5329 20.3186 17.8146 19.2866C17.0964 18.2547 16.7373 17.0455 16.7373 15.6589C16.7373 14.6997 16.9328 13.786 17.3192 12.9086C17.7101 12.0357 18.2692 11.2447 19.0056 10.5446C19.742 9.84454 20.6103 9.29448 21.6194 8.90806C22.6241 8.51711 23.7059 8.32617 24.856 8.32617C26.3243 8.32617 27.6198 8.61712 28.7381 9.19901C29.8563 9.7809 30.4155 10.581 30.4155 11.6039C30.4155 12.0721 30.2382 12.4721 29.8882 12.804C29.5381 13.1359 29.1336 13.2995 28.6744 13.2995C28.2381 13.2995 27.9017 13.1995 27.6698 12.9949C27.4335 12.7949 27.2789 12.5858 27.2062 12.3721C27.1334 12.1585 27.0243 11.7812 26.888 11.2356C26.7516 10.7128 26.5198 10.3446 26.2016 10.1264C25.8834 9.90819 25.4333 9.79908 24.8606 9.79908C23.8923 9.79908 23.0286 10.1582 22.2786 10.8765C21.5285 11.5948 21.1512 12.9404 21.1512 14.9134C21.1512 15.968 21.3012 16.9363 21.6058 17.8228C21.9104 18.7093 22.3877 19.4094 23.0423 19.9231C23.6969 20.4413 24.4969 20.7005 25.447 20.7005C26.5016 20.7005 27.3062 20.4413 27.8608 19.9185C28.4153 19.3957 28.9063 18.782 29.329 18.0819L30.67 18.6911Z" fill="white"/>
<path d="M46.1444 11.3707C46.1444 11.989 45.9534 12.4754 45.5761 12.8345C45.1988 13.1937 44.7534 13.371 44.2397 13.371C43.6306 13.371 43.0987 13.0709 42.6396 12.4754C42.4259 12.2072 42.2486 12.0162 42.1123 11.898C41.9759 11.7798 41.7759 11.7207 41.5213 11.7207C40.6895 11.7207 40.044 12.1708 39.5803 13.0709C39.1166 13.971 38.8848 14.9075 38.8848 15.8758V18.658C38.8848 19.5535 38.9984 20.1673 39.2303 20.4946C39.4576 20.8264 40.0621 20.9901 41.044 20.9901H41.8895V22.4585H31.9707V20.9901H32.8026C33.6981 20.9901 34.2481 20.8219 34.4481 20.4809C34.6482 20.14 34.7527 19.5308 34.7527 18.658V13.9892C34.7527 13.2755 34.68 12.7663 34.5391 12.4527C34.3936 12.1435 34.139 11.939 33.7617 11.8389C33.389 11.7389 32.7935 11.6889 31.9707 11.6889V10.2206L38.2029 8.84766C38.362 9.39318 38.512 10.5479 38.6484 12.3163C38.9484 11.6889 39.3394 11.1116 39.8212 10.5888C40.3076 10.066 40.8486 9.64776 41.4531 9.32499C42.0532 9.00677 42.6714 8.84766 43.2987 8.84766C44.1715 8.84766 44.867 9.09314 45.3761 9.58411C45.8898 10.0705 46.1444 10.6661 46.1444 11.3707Z" fill="white"/>
<path d="M64.0318 10.316C63.5727 10.3797 63.2181 10.4979 62.959 10.6661C62.7044 10.8388 62.4726 11.1025 62.2635 11.4571C62.0544 11.8162 61.6862 12.5345 61.1543 13.621L56.4722 23.3404C55.4267 25.4816 54.7175 26.909 54.3402 27.6137C53.9629 28.3228 53.5311 28.882 53.0538 29.3002C52.5765 29.7185 51.9765 29.923 51.2628 29.923C50.7718 29.923 50.3445 29.773 49.9854 29.4775C49.6217 29.1775 49.4399 28.8002 49.4399 28.341C49.4399 27.6909 49.6627 27.2181 50.1036 26.9272C50.5445 26.6317 51.1173 26.3862 51.8219 26.1862C52.772 25.9089 53.4947 25.4043 53.9948 24.6678C54.4948 23.9314 54.9266 23.1267 55.2903 22.2539L49.199 11.5298C48.9126 11.007 48.649 10.6752 48.4171 10.5297C48.1807 10.3842 47.858 10.316 47.4443 10.316V8.84766H55.1948V10.316H54.6994C53.9629 10.316 53.5947 10.4933 53.5947 10.8434C53.5947 11.057 53.7447 11.4253 54.0402 11.948L57.4132 17.8761L59.9042 12.8118C60.2543 12.089 60.4316 11.5935 60.4316 11.3252C60.4316 11.007 60.2725 10.757 59.9588 10.5842C59.6451 10.4069 59.2724 10.3206 58.8496 10.3206V8.8522H64.0272V10.316H64.0318Z" fill="white"/>
<path d="M83.265 15.6803C83.265 16.9896 82.9605 18.2079 82.3468 19.3308C81.7331 20.4537 80.8876 21.3447 79.8057 21.9993C78.7238 22.6539 77.5146 22.9813 76.1691 22.9813C74.4872 22.9813 73.0189 22.3903 71.7734 21.2083V26.3226C71.7734 26.9318 71.8143 27.3864 71.8916 27.6909C71.9688 27.9955 72.1507 28.2228 72.437 28.3774C72.7189 28.532 73.1553 28.6092 73.7417 28.6092H74.619V30.0776H65.332V28.6092C66.0548 28.6092 66.5776 28.5456 66.9003 28.4274C67.2185 28.3046 67.4231 28.0955 67.514 27.7955C67.6049 27.4955 67.6504 27.009 67.6504 26.3271V13.8119C67.6504 13.1937 67.6049 12.7481 67.514 12.4708C67.4231 12.1935 67.2185 11.9935 66.9049 11.8708C66.5912 11.748 66.0639 11.6889 65.332 11.6889V10.2206L71.5506 8.84766C71.6779 9.27498 71.7506 9.95234 71.7734 10.8752C72.478 10.1706 73.2053 9.65685 73.9553 9.33408C74.7054 9.01131 75.5736 8.84766 76.551 8.84766C77.6147 8.84766 78.5693 9.03859 79.4102 9.425C80.2512 9.80687 80.9558 10.3206 81.5195 10.9661C82.0831 11.6116 82.515 12.3481 82.815 13.1709C83.115 13.9892 83.265 14.8257 83.265 15.6803ZM78.8511 15.5212C78.8511 12.2526 77.7056 10.6161 75.4145 10.6161C74.669 10.6161 73.9826 10.8297 73.3598 11.2616C72.7371 11.6935 72.2052 12.2163 71.7688 12.8345V19.149C72.1825 19.7763 72.7234 20.2764 73.3916 20.6491C74.0553 21.0219 74.7417 21.2083 75.4463 21.2083C77.7192 21.2083 78.8511 19.3126 78.8511 15.5212Z" fill="white"/>
<path d="M95.7879 19.2115C95.2106 20.4162 94.5424 21.28 93.7741 21.8028C93.0059 22.3256 92.1059 22.5847 91.074 22.5847C89.8148 22.5847 88.892 22.3301 88.292 21.8164C87.6965 21.3073 87.3283 20.7345 87.1874 20.098C87.051 19.4661 86.9782 18.7524 86.9782 17.9659V10.4377H84.5645V8.96935C85.5782 8.96935 86.4555 8.77842 87.201 8.39201C87.9465 8.01014 88.5374 7.49189 88.9647 6.84181C89.3966 6.19173 89.6693 5.49619 89.7875 4.74609H91.0967V8.96481H95.6197V10.4332H91.0967V18.0569C91.0967 18.9842 91.1558 19.6525 91.2785 20.0617C91.4013 20.4708 91.7013 20.6754 92.1831 20.6754C92.6923 20.6754 93.115 20.4753 93.4469 20.0753C93.7787 19.6752 94.0969 19.1797 94.406 18.5797L95.7879 19.2115Z" fill="white"/>
<path d="M82.6065 33.5108V33.9461H78.0879V27.2539H82.5201V27.6893H78.5748V30.3195H82.0241V30.7324H78.5748V33.5153H82.6065V33.5108Z" fill="white"/>
<path d="M89.6689 33.9461V27.2539H91.926C92.645 27.2539 93.2411 27.402 93.7189 27.7027C94.1921 28.0035 94.5516 28.4029 94.7882 28.9101C95.0249 29.4173 95.1477 29.9784 95.1477 30.5933C95.1477 31.271 95.0158 31.8635 94.7564 32.3662C94.497 32.8689 94.1239 33.2594 93.637 33.5332C93.1501 33.807 92.5812 33.9461 91.926 33.9461H89.6689ZM94.6563 30.5888C94.6563 30.0277 94.5516 29.5295 94.3377 29.0897C94.1239 28.6498 93.8144 28.3042 93.4094 28.0573C93.0044 27.8105 92.5084 27.6848 91.9214 27.6848H90.1513V33.5108H91.9214C92.513 33.5108 93.0135 33.3806 93.4231 33.1248C93.8326 32.8689 94.1375 32.5188 94.3468 32.0745C94.5562 31.6301 94.6563 31.1364 94.6563 30.5888Z" fill="white"/>
<path d="M104.949 33.9897C104.408 33.9897 103.957 33.8954 103.593 33.7069C103.229 33.5184 102.938 33.2625 102.724 32.9394C102.51 32.6162 102.351 32.2526 102.255 31.8487C102.16 31.4447 102.114 31.0363 102.114 30.6144V27.248H102.601V30.6144C102.601 30.9779 102.638 31.337 102.715 31.6871C102.792 32.0372 102.915 32.3559 103.093 32.6342C103.266 32.9124 103.507 33.1369 103.812 33.2984C104.112 33.46 104.49 33.5453 104.945 33.5453C105.404 33.5453 105.782 33.46 106.087 33.2895C106.392 33.1189 106.628 32.8945 106.806 32.6162C106.979 32.3379 107.106 32.0237 107.179 31.6736C107.252 31.3235 107.288 30.9734 107.288 30.6144V27.248H107.775V30.6144C107.775 31.0587 107.725 31.4851 107.625 31.8936C107.525 32.2975 107.366 32.6566 107.143 32.9708C106.92 33.285 106.628 33.5318 106.273 33.7159C105.909 33.8999 105.473 33.9897 104.949 33.9897Z" fill="white"/>
<path d="M114.705 30.5439C114.705 30.1399 114.778 29.7449 114.919 29.35C115.06 28.955 115.269 28.6004 115.547 28.2772C115.824 27.9541 116.157 27.6937 116.557 27.5007C116.958 27.3077 117.408 27.209 117.918 27.209C118.523 27.209 119.037 27.3436 119.465 27.6174C119.893 27.8912 120.211 28.2413 120.42 28.6677L120.02 28.8921C119.861 28.5824 119.665 28.3401 119.433 28.156C119.201 27.972 118.951 27.8419 118.682 27.7655C118.414 27.6892 118.145 27.6488 117.881 27.6488C117.454 27.6488 117.076 27.7341 116.739 27.9047C116.402 28.0752 116.125 28.2997 115.893 28.5824C115.665 28.8652 115.488 29.1794 115.374 29.525C115.256 29.8706 115.197 30.2207 115.197 30.5708C115.197 30.9658 115.265 31.3428 115.406 31.6974C115.547 32.052 115.738 32.3662 115.984 32.6445C116.229 32.9227 116.516 33.1427 116.844 33.3043C117.171 33.4658 117.526 33.5511 117.909 33.5511C118.182 33.5511 118.459 33.5062 118.746 33.4165C119.028 33.3267 119.297 33.1831 119.542 32.9946C119.793 32.8016 119.993 32.5547 120.143 32.245L120.562 32.4425C120.416 32.7746 120.193 33.0574 119.902 33.2908C119.61 33.5242 119.283 33.6992 118.928 33.8204C118.573 33.9416 118.218 34 117.868 34C117.408 34 116.985 33.9012 116.598 33.7037C116.211 33.5062 115.875 33.2414 115.588 32.9138C115.306 32.5816 115.087 32.2136 114.933 31.8006C114.782 31.3787 114.705 30.9613 114.705 30.5439Z" fill="white"/>
<path d="M129.534 27.2539H129.953L132.82 33.9461H132.306L131.382 31.7423H128.106L127.177 33.9461H126.649L129.534 27.2539ZM131.214 31.3429L129.744 27.8374L128.269 31.3429H131.214Z" fill="white"/>
<path d="M143.668 27.6834H141.183V33.9403H140.696V27.6834H138.212V27.248H143.668V27.6834Z" fill="white"/>
<path d="M150.453 33.9461V27.2539H150.94V33.9461H150.453Z" fill="white"/>
<path d="M161.155 33.9902C160.682 33.9902 160.254 33.8959 159.867 33.7029C159.481 33.5099 159.144 33.2541 158.862 32.9354C158.58 32.6167 158.366 32.2532 158.211 31.8447C158.056 31.4408 157.983 31.0234 157.983 30.597C157.983 30.1526 158.065 29.7262 158.225 29.3178C158.384 28.9138 158.607 28.5502 158.898 28.2316C159.189 27.9129 159.526 27.6615 159.913 27.4775C160.3 27.2935 160.718 27.1992 161.169 27.1992C161.647 27.1992 162.079 27.298 162.466 27.491C162.852 27.684 163.185 27.9488 163.462 28.272C163.744 28.5996 163.958 28.9632 164.113 29.3671C164.268 29.7711 164.34 30.1795 164.34 30.5925C164.34 31.0458 164.259 31.4722 164.099 31.8806C163.94 32.2846 163.717 32.6482 163.426 32.9668C163.135 33.2855 162.798 33.5324 162.411 33.7164C162.024 33.9004 161.606 33.9902 161.155 33.9902ZM158.47 30.597C158.47 30.9785 158.539 31.3465 158.671 31.7011C158.802 32.0512 158.989 32.3654 159.23 32.6437C159.467 32.922 159.754 33.1419 160.081 33.3035C160.409 33.4651 160.773 33.5503 161.164 33.5503C161.565 33.5503 161.933 33.4651 162.265 33.2945C162.598 33.1239 162.88 32.8995 163.116 32.6167C163.353 32.334 163.53 32.0198 163.658 31.6697C163.781 31.3196 163.844 30.965 163.844 30.6014C163.844 30.2199 163.781 29.8519 163.649 29.4973C163.517 29.1472 163.33 28.833 163.089 28.5547C162.848 28.2764 162.561 28.0565 162.234 27.8949C161.906 27.7333 161.551 27.6481 161.169 27.6481C160.759 27.6481 160.391 27.7333 160.058 27.9039C159.726 28.0745 159.444 28.2989 159.212 28.5817C158.98 28.8644 158.798 29.1786 158.666 29.5287C158.534 29.8788 158.47 30.2334 158.47 30.597Z" fill="white"/>
<path d="M171.867 28.1471V33.9461H171.38V27.2539H171.78L176.513 33.1427V27.2539H177V33.9461H176.522L171.867 28.1471Z" fill="white"/>
</svg>
